<svg xmlns="http://www.w3.org/2000/svg" viewBox="0 0 4369.87 615.13"><defs><style>.cls-1{fill:#fff;}</style></defs><g id="Layer_2" data-name="Layer 2"><path class="cls-1" d="M398.14,370l99.92-60c-50.54,51.46-59.28,86.8-75.86,102.09q-47,43.14-128.65,43.14-75,0-119.31-37.31-45.87-39.26-45.87-109.61c0-48.44,43.54-94.58,78.27-120.49,8-5.93-122.3-107.15-103.4-95.52,18.08,11.13,159.06,70.65,194.2,70.65q41.58,0,77,13.22,57.14,21.38,80.45,72.29l-75.4,9.33q-28-44.31-82-44.31-45.09,0-71.32,27.4t-26.23,68.21q0,43.14,29.92,70.35Q258.18,404.7,299,404.69c25.66,0,42.27-4.37,65-14.88C380.36,381.47,386.54,376.06,398.14,370Z"/><path class="cls-1" d="M519.38,476.61l40.08-49.77v-230l-60.79-66.77,83.46,42H748.35q28,0,44.3,4.67a78.94,78.94,0,0,1,38.09,24.52q17.88,20.64,17.88,52.93,0,40.49-26.43,60.72Q806.65,327,777.5,332.08L860.67,446.9H779.83L706.37,336.52H628.25V446.9H587.7ZM594.65,201l33.6,30.29v56.62h109.6q41.19,0,41.2-32.84,0-14.06-5.44-21.49-9.72-13.31-38.87-13.3H640.63Z"/><path class="cls-1" d="M929.55,445.89V184.1L889,149.48l109.31,21.63V434.79l41.54,41.73Z"/><path class="cls-1" d="M3691.16,466.52l41.54-41.73V161.11L3842,139.48,3801.5,174.1V435.89Z"/><path class="cls-1" d="M1109.93,445.89V191.52l-81.31-63.06,180.51,42.65,71.57,168.23a247.73,247.73,0,0,1,13.88,40.87q3.86-15.94,12.73-37.73l71.89-171.37,178-41.73-80,59.66V445.89h-64.91v-192q0-7.38,2.72-25.65-2,5.83-7.77,21l-82,196.66-30.17,60.46-32.4-60.46-82-192.77q-3.89-8.55-8.16-24.88,2.33,23.32,2.33,24.49V445.89Z"/><path class="cls-1" d="M1533.23,476.52l105.3-115.74q20.21,43.14,92.12,43.13,23.7,0,40.81-5.43,28.36-9.35,28.37-30.7,0-20.59-33.82-27.2-33.84-5.31-80.51-12.88-88.93-16.35-88.94-79.06a72.37,72.37,0,0,1,10.88-39q29.14-46.73,117-46.74,59.85,0,99.11,21.38c18.39,10.11,74.75-36.39,110-60.5L1813.9,262c-2.07-3.89-14.33-24.17-16.66-26.76a55.58,55.58,0,0,0-17.45-12.83q-21.35-10.49-55.09-10.49-61.29,0-61.29,31.87,0,12,10.38,18.65,7.31,4.28,25.76,8.55,33.43,5.83,80.07,14.38,36.92,7,54.8,18.65,31.1,19.83,31.09,59.08c0,60.9-38.39,91.24-153.15,91.78C1638.52,455.23,1673.57,409.75,1533.23,476.52Z"/><path class="cls-1" d="M2903.37,476.23l105.31-115.74q20.21,43.14,92.11,43.13,23.72,0,40.81-5.43,28.38-9.33,28.38-30.7,0-20.6-33.82-27.2-33.84-5.31-80.51-12.88-89-16.35-88.94-79.06a72.37,72.37,0,0,1,10.88-39q29.14-46.72,117-46.74,59.84,0,99.11,21.38c18.39,10.11,74.75-36.39,110-60.5L3184.05,261.71c-2.07-3.89-14.33-24.17-16.66-26.76a55.58,55.58,0,0,0-17.45-12.83q-21.34-10.49-55.09-10.49-61.3,0-61.29,31.87,0,12,10.38,18.65,7.3,4.28,25.76,8.55,33.42,5.83,80.07,14.38,36.92,7,54.8,18.65,31.09,19.83,31.09,59.08c0,60.9-38.39,91.24-153.15,91.78C3008.67,454.94,3043.71,409.46,2903.37,476.23Z"/><path class="cls-1" d="M1991.25,181.58q29.4-17.1,69.24-22.18,10.66-1.36,22.07-1.86,44.31-1.93,82.39,10.1,43.14,14,67.24,43.15,29.54,35.76,29.54,89.78,0,57-30.12,94.15c-3.74,4.6-23.13,5.22-31.94-1-4.83-3.44,10.78,22,5.93,25.45q-42.39,30.3-111.38,30.29-81.24,0-126.32-40.8-43.14-38.87-43.14-104.95,0-56.25,30.49-92.26Zm99.08,25.32q-31.54,1-54.74,17.07c-3.39,2.36-21.19-1.45-26.06-5.16-4.27-3.26,8.64,20.34,5.42,24.42q-19.46,24.65-19.45,62,0,33.43,17.49,57.52,27.59,37.71,80.06,37.7,39.33,0,64.61-20.51c3-2.41-46.83-53.64-43.59-51.48,16.69,11.13,58.14,36.76,60.73,33.05q16.57-23.75,16.58-57.45,0-44.68-29.93-72.29Q2132.7,205.36,2090.33,206.9Z"/><path class="cls-1" d="M2256.85,483.1l78.54-61.21v-255h68.41l134.31,153.28q12.1,13.55,36.7,44.15-2.71-30.37-2.72-56.86V166.87l126-43.28-60.34,60V441.65h-68.46L2433.75,286.93q-15.14-17.12-35.33-43.17,2.26,25.28,2.27,46.66V441.65Z"/><path class="cls-1" d="M3811.08,480.05l78.55-61.2v-255H3958L4092.34,317.1q12.1,13.54,36.71,44.15-2.73-30.36-2.73-56.85V163.82l126-43.27-60.34,60V438.6h-68.46L3988,283.88q-15.15-17.1-35.34-43.16,2.26,25.26,2.27,46.65V438.6Z"/><path class="cls-1" d="M3255.28,522.07l87.3-109.42V232.5l-52.2,6.53L3411.24,127.7l-.64,40.12V288.3l143.71-120.48h0l132.62-43.27-52.75,45.34L3499.16,284,3651.57,442.6h-91.81L3452,324.25l-41.4,36.16V442.6Z"/></g></svg>