<svg id="Layer_1" data-name="Layer 1" xmlns="http://www.w3.org/2000/svg" viewBox="0 0 32 32"><defs><style>.cls-1{fill:#fff;}</style></defs><path class="cls-1" d="M0,5.39H32V25.77H0ZM16.64,23.93h0a.43.43,0,0,0,0,.05c0,.23,0,.46,0,.69,0,0,0,.12,0,.14s.1,0,.12-.1.17-.32.25-.49.16-.4.24-.6l.06-.12a.17.17,0,0,1,0,.11v.82s0,.08,0,.13a.8.8,0,0,0,.29-.25l.32-.46.06-.1A5.3,5.3,0,0,1,18,25.24a.28.28,0,0,0,.18-.15,3.44,3.44,0,0,0,.3-.53A8.28,8.28,0,0,0,19,22.74a2,2,0,0,1,.7-1.19,3.06,3.06,0,0,1,.29-.21,6.55,6.55,0,0,1,1.17-.62,1.81,1.81,0,0,0,.72-.56l.38-.5c.08-.1.16-.21.25-.31a3.22,3.22,0,0,1,.91-.77s.09,0,.1-.11a.42.42,0,0,0-.16,0,2.37,2.37,0,0,0-.36.09A3,3,0,0,0,22,19.2a.27.27,0,0,1-.13.09l.09-.13a2.67,2.67,0,0,1,.43-.46,4.21,4.21,0,0,1,1.6-.79A3.75,3.75,0,0,0,25.59,17a7.19,7.19,0,0,0,1.46-2,7.11,7.11,0,0,0,.45-1.19,1.76,1.76,0,0,1,.58-.93,1.18,1.18,0,0,1,1-.25,1.39,1.39,0,0,1,.52.21l.32.22a1.14,1.14,0,0,0,1.1.09,2.26,2.26,0,0,0,.88-.74s0-.06,0-.09h0l-.1.07-.46.27a1.2,1.2,0,0,1-.49.14,1.11,1.11,0,0,1-.76-.27,1.66,1.66,0,0,1-.27-.26,2.53,2.53,0,0,0-.94-.67,1.87,1.87,0,0,0-1-.11,2.14,2.14,0,0,0-1.06.56,3.16,3.16,0,0,0-.64.86.62.62,0,0,0-.07.23.48.48,0,0,0,.19.43.36.36,0,0,1,.12.3,2.57,2.57,0,0,1-.11.48,4.27,4.27,0,0,1-.58,1,4.57,4.57,0,0,1-1.08,1.07.41.41,0,0,1-.11.07,3.06,3.06,0,0,1,.3-.32,4.41,4.41,0,0,0,.69-.86,3,3,0,0,0,.24-.56.17.17,0,0,0,0-.19l-.08.1a8.86,8.86,0,0,1-2.51,2.29l-.39.24a5.63,5.63,0,0,0-1.57,1.47l0,0a.08.08,0,0,1,0,0,6.65,6.65,0,0,1,1-1.83,3,3,0,0,1,.86-.74l.94-.58a3.3,3.3,0,0,0,1.22-1.32,5.83,5.83,0,0,0,.38-1,1.16,1.16,0,0,0,0-.18h0a5.69,5.69,0,0,1-1.79,2,2.42,2.42,0,0,1,0-.27c.08-.62.16-1.24.25-1.85a5.82,5.82,0,0,1,.39-1.43,1.54,1.54,0,0,1,.71-.8l.6-.31,1-.45a2.83,2.83,0,0,0,.68-.44,1.89,1.89,0,0,0,.62-1,.17.17,0,0,0,0-.07c-.08,0-.08,0-.17.11a3.59,3.59,0,0,1-2.49,1.24,3.69,3.69,0,0,0-.75.15,2.73,2.73,0,0,0-1.7,1.54.19.19,0,0,0,0,.18l.11-.05.26-.12c.15-.06.2,0,.18.14a2,2,0,0,1-.06.26c-.18.54-.35,1.08-.53,1.62-.09.25-.18.51-.28.76a1.4,1.4,0,0,1-.59.68,4.37,4.37,0,0,1-.43.22c-.26.13-.53.25-.78.39a2.65,2.65,0,0,0-1,.89,1.76,1.76,0,0,1-.47.51l-.74.53-.13.07a.45.45,0,0,1,0-.08,5.09,5.09,0,0,1,0-.55.45.45,0,0,0-.08-.23c-.11-.19-.21-.38-.32-.56l-.06-.11a1.5,1.5,0,0,0,.15-.23A4.09,4.09,0,0,0,18.7,13c0-.35-.09-.69-.15-1s-.14-.79-.23-1.19A3.94,3.94,0,0,0,18,9.9c0-.05-.06-.11-.13-.12v.13c0,.22,0,.45,0,.68l0,.85A6.81,6.81,0,0,1,17.81,13c0,.17-.07.33-.11.52v-.08A2.08,2.08,0,0,0,17.4,12l-.33-.49c-.2-.33-.42-.65-.62-1a2.68,2.68,0,0,1-.34-.92c0-.07,0-.15,0-.22s-.08.07-.08.12a2.14,2.14,0,0,1-.16.65,5.36,5.36,0,0,1-.34.62c-.19.32-.4.63-.62.93a2.45,2.45,0,0,0-.48,1.59.27.27,0,0,1,0,.09.2.2,0,0,1,0-.08,7.4,7.4,0,0,1-.16-1.15,5.45,5.45,0,0,1,0-.7c0-.53.06-1.06.1-1.6V9.76c-.08,0-.11.07-.14.12a3,3,0,0,0-.29.67A10.27,10.27,0,0,0,13.52,12a12.75,12.75,0,0,0-.15,1.37,4.33,4.33,0,0,0,.25,1.6,4.2,4.2,0,0,0,.52,1c0,.05,0,.08,0,.14l-.36.65a.3.3,0,0,0-.05.15v.53a.69.69,0,0,1,0,.13l-.05,0-.94-.67a2.17,2.17,0,0,1-.51-.58,1.48,1.48,0,0,0-.4-.46,4.48,4.48,0,0,0-.44-.32,5.12,5.12,0,0,0-.94-.46,1.7,1.7,0,0,1-1-1.09c-.23-.73-.48-1.46-.72-2.19a.86.86,0,0,1-.06-.23c0-.12,0-.17.16-.14l.18.08.24.11a.77.77,0,0,0-.08-.29c-.11-.18-.21-.36-.33-.52a2.72,2.72,0,0,0-1.37-.94,5.11,5.11,0,0,0-.87-.15A3.55,3.55,0,0,1,5,9.07a4,4,0,0,1-.72-.64l-.1-.1c0,.09,0,.09,0,.18a2.12,2.12,0,0,0,.45.75,2.94,2.94,0,0,0,.91.62l1.08.49a6.19,6.19,0,0,1,.57.3,1.37,1.37,0,0,1,.51.56c.09.2.17.39.24.59a10.58,10.58,0,0,1,.34,1.58c0,.38.09.77.13,1.16a1.27,1.27,0,0,1,0,.2c0,.06,0,.12,0,.22l-.29-.23-.26-.22-.25-.24-.24-.24-.22-.27L6.9,13.5l-.18-.29a3.18,3.18,0,0,0-.17-.3s0,.05,0,.06a.22.22,0,0,0,0,.08A5.29,5.29,0,0,0,7,14.16a3,3,0,0,0,1,1.18l.54.36.55.32a3.57,3.57,0,0,1,1.07,1,6.66,6.66,0,0,1,.79,1.49.56.56,0,0,1,0,.12.1.1,0,0,1-.07-.05A5.74,5.74,0,0,0,9.07,17l-.36-.21a9.51,9.51,0,0,1-2.15-2,.93.93,0,0,0-.13-.15s0,0-.07,0a.27.27,0,0,0,0,.2,4,4,0,0,0,.68,1.13c.15.16.31.32.47.47l.09.08,0,0L7.5,16.4A4.93,4.93,0,0,1,6,14.65,3,3,0,0,1,5.73,14a.51.51,0,0,1,.16-.57l0,0A.38.38,0,0,0,6,12.94a3.66,3.66,0,0,0-.46-.72,2.22,2.22,0,0,0-.73-.6,1.9,1.9,0,0,0-.9-.22,2.22,2.22,0,0,0-1,.32,3.13,3.13,0,0,0-.59.5,1.54,1.54,0,0,1-.38.34,1,1,0,0,1-.67.17,1.52,1.52,0,0,1-.74-.28l-.23-.16-.09,0a.31.31,0,0,0,0,.07l0,.06a2.14,2.14,0,0,0,1,.75.86.86,0,0,0,.5.06A1.63,1.63,0,0,0,2,13.06c.16-.08.31-.18.46-.27a1.28,1.28,0,0,1,1-.22,1.39,1.39,0,0,1,1,.84c0,.13.1.27.14.41a7.43,7.43,0,0,0,1.76,3A3.72,3.72,0,0,0,8.2,17.92a3.43,3.43,0,0,1,.7.25,3.58,3.58,0,0,1,1.38,1.09.61.61,0,0,1,.07.1A3.3,3.3,0,0,1,10,19a2.89,2.89,0,0,0-1.17-.56.22.22,0,0,0-.23,0l.13.08a2.49,2.49,0,0,1,.78.62c.17.2.33.39.48.6a2.9,2.9,0,0,0,1.34,1.08,4.07,4.07,0,0,1,1.16.71,1.84,1.84,0,0,1,.65,1.13c.06.29.12.57.2.86a4.77,4.77,0,0,0,.37,1c.09.17.2.34.3.5a.17.17,0,0,0,.13.1A7.08,7.08,0,0,1,14,23.71a2.31,2.31,0,0,0,.67.86.62.62,0,0,0,0-.12v-.88a.36.36,0,0,1,0-.11h0c0,.1.09.21.13.32s.17.43.26.64a2.07,2.07,0,0,0,.22.35s0,0,.08.06l0-.95a.19.19,0,0,1,.07.11c.07.16.13.33.19.49l.18.41a.19.19,0,0,0,.17.1.23.23,0,0,0,.19-.15l.34-.82ZM11.07,7.49a.81.81,0,0,0,.09-.41,1.08,1.08,0,0,0-.51-.81l-.09,0a2.87,2.87,0,0,0-1.27-.05,1.44,1.44,0,0,0-.9.54.88.88,0,0,0-.18.78,1.45,1.45,0,0,0,.4.7,1.91,1.91,0,0,0,.77.47,4.91,4.91,0,0,0,1.26.23h.11v0L10.68,9a.62.62,0,0,1-.19.07,3.35,3.35,0,0,1-.53.07L9,9.1H9a.38.38,0,0,0,.17.1,3.1,3.1,0,0,0,.51.11l.83.06a1.91,1.91,0,0,0,.85-.14,5.08,5.08,0,0,0,1.08-.57l.09-.05a.72.72,0,0,1-.12.21.9.9,0,0,1-.27.28.68.68,0,0,0-.21.27.23.23,0,0,0,0,.2,1.27,1.27,0,0,0,.15.31.59.59,0,0,0,.18.17.12.12,0,0,0,.15,0l-.16-.14a.24.24,0,0,1-.09-.21.63.63,0,0,1,.12-.32A1.36,1.36,0,0,1,12.69,9a1,1,0,0,0,.5-.67,2.07,2.07,0,0,0,.05-.61,5.5,5.5,0,0,0-.37-1.54l0-.08,0,0s0,.1,0,.16a2.67,2.67,0,0,1-.35,1,1.55,1.55,0,0,1-1.1.74A.88.88,0,0,1,10.81,8c-.27-.12-.54-.22-.81-.32a.62.62,0,0,1-.27-.17,1,1,0,0,1-.22-.35.14.14,0,0,1,0-.09.41.41,0,0,1,.28-.34,1.29,1.29,0,0,1,.55-.08.58.58,0,0,1,.49.27,1.33,1.33,0,0,1,.19.42S11.05,7.42,11.07,7.49ZM21.32,8.91h.06c.27,0,.53-.05.79-.09a2.7,2.7,0,0,0,1-.36,1.54,1.54,0,0,0,.67-.82.91.91,0,0,0-.14-.91A1.34,1.34,0,0,0,23,6.25a2.7,2.7,0,0,0-1.49,0,.26.26,0,0,0-.12,0,1.12,1.12,0,0,0-.51.77.75.75,0,0,0,.09.45l0-.12a1.4,1.4,0,0,1,.22-.48.55.55,0,0,1,.46-.23.91.91,0,0,1,.23,0,1.21,1.21,0,0,1,.33.07.38.38,0,0,1,.2.59c-.05.09-.13.17-.2.27l.33-.09a.28.28,0,0,1-.11.13,3.17,3.17,0,0,1-.41.21,3.28,3.28,0,0,1-.82.2,2.09,2.09,0,0,1-.56,0,1.55,1.55,0,0,1-1.12-.8,3.11,3.11,0,0,1-.33-1,.31.31,0,0,0,0-.08.3.3,0,0,0-.06.11c-.06.18-.13.35-.18.53a3.81,3.81,0,0,0-.15,1.42,1.09,1.09,0,0,0,.54.84,1.88,1.88,0,0,1,.36.27.67.67,0,0,1,.16.25.3.3,0,0,1-.11.39l-.12.11A.25.25,0,0,0,20,10a1,1,0,0,0,.19-.32.33.33,0,0,0-.06-.4,2.09,2.09,0,0,0-.14-.17H20l.66.15a3.47,3.47,0,0,0,1,.13c.31,0,.62,0,.93-.08A1.53,1.53,0,0,0,23,9.16l.06-.05H23a5.72,5.72,0,0,1-1.17,0A1.24,1.24,0,0,1,21.42,9C21.37,9,21.32,9,21.32,8.91Zm-9,13.72c0-.05,0-.07,0-.09a3.27,3.27,0,0,0-.54-.74,1.65,1.65,0,0,0-.62-.38,5.87,5.87,0,0,1-1.24-.65,1.58,1.58,0,0,1-.37-.36.37.37,0,0,1-.09-.2.48.48,0,0,0-.33-.43l-.44-.19L7.16,19a.19.19,0,0,0-.15,0l.1.16a4.52,4.52,0,0,0,1,1l.4.31a.14.14,0,0,1,.08.12l-.35-.15a.73.73,0,0,0,.26.36.74.74,0,0,1,.13.12l.15.21a4,4,0,0,1,.23.39.42.42,0,0,0,.19.22,2.21,2.21,0,0,0,.42.18c.24.07.48.11.73.16A6,6,0,0,1,12.28,22.63ZM25.05,19v0l-.14,0-1.9.81a.47.47,0,0,0-.32.42.85.85,0,0,1-.09.22,2,2,0,0,1-.4.36,5.33,5.33,0,0,1-1.23.64,1.44,1.44,0,0,0-.52.31,3.32,3.32,0,0,0-.63.82.11.11,0,0,0,0,.05l.55-.24A8.53,8.53,0,0,1,21.92,22a3.07,3.07,0,0,0,.8-.23.54.54,0,0,0,.35-.34l0-.05c.12-.18.24-.37.37-.55a.14.14,0,0,1,.07-.06.67.67,0,0,0,.25-.3.19.19,0,0,0,0-.07l-.32.13,0,0a.43.43,0,0,1,.1-.09l.38-.3a4.51,4.51,0,0,0,1-1.05Z"/><path d="M16.64,23.93l-.05.09-.34.82a.23.23,0,0,1-.19.15.19.19,0,0,1-.17-.1l-.18-.41c-.06-.16-.12-.33-.19-.49a.19.19,0,0,0-.07-.11l0,.95s-.07,0-.08-.06a2.07,2.07,0,0,1-.22-.35c-.09-.21-.17-.43-.26-.64s-.09-.22-.13-.32h0a.36.36,0,0,0,0,.11v.88a.62.62,0,0,1,0,.12,2.31,2.31,0,0,1-.67-.86,7.08,7.08,0,0,0,.11,1.52.17.17,0,0,1-.13-.1c-.1-.16-.21-.33-.3-.5a4.77,4.77,0,0,1-.37-1c-.08-.29-.14-.57-.2-.86a1.84,1.84,0,0,0-.65-1.13,4.07,4.07,0,0,0-1.16-.71,2.9,2.9,0,0,1-1.34-1.08c-.15-.21-.31-.4-.48-.6a2.49,2.49,0,0,0-.78-.62l-.13-.08a.22.22,0,0,1,.23,0A2.89,2.89,0,0,1,10,19a3.3,3.3,0,0,0,.4.32.61.61,0,0,0-.07-.1A3.58,3.58,0,0,0,8.9,18.17a3.43,3.43,0,0,0-.7-.25,3.72,3.72,0,0,1-1.84-1.08,7.43,7.43,0,0,1-1.76-3c0-.14-.09-.28-.14-.41a1.39,1.39,0,0,0-1-.84,1.28,1.28,0,0,0-1,.22c-.15.09-.3.19-.46.27a1.63,1.63,0,0,1-.37.13.86.86,0,0,1-.5-.06,2.14,2.14,0,0,1-1-.75l0-.06a.31.31,0,0,1,0-.07l.09,0,.23.16a1.52,1.52,0,0,0,.74.28,1,1,0,0,0,.67-.17,1.54,1.54,0,0,0,.38-.34,3.13,3.13,0,0,1,.59-.5,2.22,2.22,0,0,1,1-.32,1.9,1.9,0,0,1,.9.22,2.22,2.22,0,0,1,.73.6,3.66,3.66,0,0,1,.46.72.38.38,0,0,1-.07.47l0,0a.51.51,0,0,0-.16.57,3,3,0,0,0,.25.65A4.93,4.93,0,0,0,7.5,16.4l.09.06,0,0-.09-.08c-.16-.15-.32-.31-.47-.47a4,4,0,0,1-.68-1.13.27.27,0,0,1,0-.2s.06,0,.07,0a.93.93,0,0,1,.13.15,9.51,9.51,0,0,0,2.15,2l.36.21a5.74,5.74,0,0,1,1.83,1.6.1.1,0,0,0,.07.05.56.56,0,0,0,0-.12A6.66,6.66,0,0,0,10.14,17a3.57,3.57,0,0,0-1.07-1l-.55-.32L8,15.34a3,3,0,0,1-1-1.18,5.29,5.29,0,0,1-.42-1.11.22.22,0,0,1,0-.08s0,0,0-.06a3.18,3.18,0,0,1,.17.3l.18.29.21.28.22.27.24.24.25.24.26.22.29.23c0-.1,0-.16,0-.22a1.27,1.27,0,0,0,0-.2c0-.39-.08-.78-.13-1.16a10.58,10.58,0,0,0-.34-1.58c-.07-.2-.15-.39-.24-.59a1.37,1.37,0,0,0-.51-.56,6.19,6.19,0,0,0-.57-.3L5.47,9.88a2.94,2.94,0,0,1-.91-.62,2.12,2.12,0,0,1-.45-.75c0-.09,0-.09,0-.18l.1.1A4,4,0,0,0,5,9.07a3.55,3.55,0,0,0,1.63.6,5.11,5.11,0,0,1,.87.15,2.72,2.72,0,0,1,1.37.94c.12.16.22.34.33.52a.77.77,0,0,1,.08.29L9,11.46l-.18-.08c-.12,0-.18,0-.16.14a.86.86,0,0,0,.06.23c.24.73.49,1.46.72,2.19a1.7,1.7,0,0,0,1,1.09,5.12,5.12,0,0,1,.94.46,4.48,4.48,0,0,1,.44.32,1.48,1.48,0,0,1,.4.46,2.17,2.17,0,0,0,.51.58l.94.67.05,0a.69.69,0,0,0,0-.13v-.53a.3.3,0,0,1,.05-.15l.36-.65c0-.06,0-.09,0-.14a4.2,4.2,0,0,1-.52-1,4.33,4.33,0,0,1-.25-1.6A12.75,12.75,0,0,1,13.52,12a10.27,10.27,0,0,1,.33-1.41,3,3,0,0,1,.29-.67c0-.05.06-.11.14-.12v.13c0,.54-.08,1.07-.1,1.6a5.45,5.45,0,0,0,0,.7,7.4,7.4,0,0,0,.16,1.15.2.2,0,0,0,0,.08.27.27,0,0,0,0-.09,2.45,2.45,0,0,1,.48-1.59c.22-.3.43-.61.62-.93a5.36,5.36,0,0,0,.34-.62A2.14,2.14,0,0,0,16,9.54s0-.11.08-.12,0,.15,0,.22a2.68,2.68,0,0,0,.34.92c.2.34.42.66.62,1l.33.49a2.08,2.08,0,0,1,.29,1.4v.08c0-.19.08-.35.11-.52a6.81,6.81,0,0,0,.08-1.56l0-.85c0-.23,0-.46,0-.68V9.78c.07,0,.1.07.13.12a3.94,3.94,0,0,1,.35.88c.09.4.16.79.23,1.19s.12.68.15,1a4.09,4.09,0,0,1-.61,2.7,1.5,1.5,0,0,1-.15.23L18,16c.11.18.21.37.32.56a.45.45,0,0,1,.08.23,5.09,5.09,0,0,0,0,.55.45.45,0,0,0,0,.08l.13-.07.74-.53a1.76,1.76,0,0,0,.47-.51,2.65,2.65,0,0,1,1-.89c.25-.14.52-.26.78-.39a4.37,4.37,0,0,0,.43-.22,1.4,1.4,0,0,0,.59-.68c.1-.25.19-.51.28-.76.18-.54.35-1.08.53-1.62a2,2,0,0,0,.06-.26c0-.17,0-.2-.18-.14l-.26.12-.11.05a.19.19,0,0,1,0-.18,2.73,2.73,0,0,1,1.7-1.54,3.69,3.69,0,0,1,.75-.15,3.59,3.59,0,0,0,2.49-1.24c.09-.1.09-.1.17-.11a.17.17,0,0,1,0,.07,1.89,1.89,0,0,1-.62,1,2.83,2.83,0,0,1-.68.44l-1,.45-.6.31a1.54,1.54,0,0,0-.71.8A5.82,5.82,0,0,0,24,12.83c-.09.61-.17,1.23-.25,1.85a2.42,2.42,0,0,0,0,.27,5.69,5.69,0,0,0,1.79-2h0a1.16,1.16,0,0,1,0,.18,5.83,5.83,0,0,1-.38,1,3.3,3.3,0,0,1-1.22,1.32l-.94.58a3,3,0,0,0-.86.74,6.65,6.65,0,0,0-1,1.83.08.08,0,0,0,0,0l0,0a5.63,5.63,0,0,1,1.57-1.47l.39-.24a8.86,8.86,0,0,0,2.51-2.29l.08-.1a.17.17,0,0,1,0,.19,3,3,0,0,1-.24.56,4.41,4.41,0,0,1-.69.86,3.06,3.06,0,0,0-.3.32.41.41,0,0,0,.11-.07,4.57,4.57,0,0,0,1.08-1.07,4.27,4.27,0,0,0,.58-1,2.57,2.57,0,0,0,.11-.48.36.36,0,0,0-.12-.3.48.48,0,0,1-.19-.43.62.62,0,0,1,.07-.23,3.16,3.16,0,0,1,.64-.86,2.14,2.14,0,0,1,1.06-.56,1.87,1.87,0,0,1,1,.11,2.53,2.53,0,0,1,.94.67,1.66,1.66,0,0,0,.27.26,1.11,1.11,0,0,0,.76.27,1.2,1.2,0,0,0,.49-.14l.46-.27.1-.07h0s0,.07,0,.09a2.26,2.26,0,0,1-.88.74,1.14,1.14,0,0,1-1.1-.09l-.32-.22a1.39,1.39,0,0,0-.52-.21,1.18,1.18,0,0,0-1,.25,1.76,1.76,0,0,0-.58.93A7.11,7.11,0,0,1,27.05,15a7.19,7.19,0,0,1-1.46,2,3.75,3.75,0,0,1-1.65.92,4.21,4.21,0,0,0-1.6.79,2.67,2.67,0,0,0-.43.46l-.09.13A.27.27,0,0,0,22,19.2,3,3,0,0,1,23,18.57a2.37,2.37,0,0,1,.36-.09.42.42,0,0,1,.16,0c0,.08-.06.09-.1.11a3.22,3.22,0,0,0-.91.77c-.09.1-.17.21-.25.31l-.38.5a1.81,1.81,0,0,1-.72.56,6.55,6.55,0,0,0-1.17.62,3.06,3.06,0,0,0-.29.21,2,2,0,0,0-.7,1.19,8.28,8.28,0,0,1-.54,1.82,3.44,3.44,0,0,1-.3.53.28.28,0,0,1-.18.15,5.3,5.3,0,0,0,.12-1.49l-.06.1-.32.46a.8.8,0,0,1-.29.25s0-.09,0-.13v-.82a.17.17,0,0,0,0-.11l-.06.12c-.08.2-.15.4-.24.6s-.16.33-.25.49-.06.12-.12.1,0-.09,0-.14c0-.23,0-.46,0-.69a.43.43,0,0,1,0-.05Zm-5.45-7,0,0,.45.54a.89.89,0,0,1,.2.4L12.09,19a2,2,0,0,0,.27.62,2.07,2.07,0,0,0,.49.49c.52.36,1.05.7,1.6,1a.71.71,0,0,1,.35.41c0,.15.11.29.17.44a.89.89,0,0,1,0,.1,4,4,0,0,0-.93-3.19.53.53,0,0,1-.5-.09l-.15-.1-2.15-1.66Zm5.86,5.1h0l0-.09a3.61,3.61,0,0,0,.16-.42.72.72,0,0,1,.38-.44,13.46,13.46,0,0,0,1.57-1,3.87,3.87,0,0,0,.37-.32,1.15,1.15,0,0,0,.31-.53c.12-.42.23-.84.34-1.26a1.2,1.2,0,0,1,.27-.54L20.9,17l0-.07a.19.19,0,0,0-.09.05c-.32.25-.62.52-1,.76s-.94.7-1.41,1a.5.5,0,0,1-.35.12l-.15,0A4.08,4.08,0,0,0,17.05,22.07ZM16,11.66a2.17,2.17,0,0,0-.55,1.47,2.1,2.1,0,0,1-.29,1.22,2.15,2.15,0,0,0-.14.26.47.47,0,0,0,0,.55l.07.09.36.42a2.13,2.13,0,0,1,.49.88.31.31,0,0,0,0,.09s0-.05,0-.06a2.35,2.35,0,0,1,.53-.95c.13-.15.25-.3.37-.46a.48.48,0,0,0,.06-.56l-.15-.28a1.91,1.91,0,0,1-.28-1.09,2.22,2.22,0,0,0-.07-.68A2.44,2.44,0,0,0,16,11.66Zm.86,6-.07,0a.39.39,0,0,1-.46-.06l-.23-.22-.1-.11a1.09,1.09,0,0,1-.37.37.94.94,0,0,1-.5,0v0a.41.41,0,0,0,0,.11,1.11,1.11,0,0,0,.72.93.39.39,0,0,0,.28,0,1.08,1.08,0,0,0,.71-.83A.63.63,0,0,0,16.9,17.66Z"/><path d="M11.07,7.49c0-.07,0-.1-.05-.14a1.33,1.33,0,0,0-.19-.42.58.58,0,0,0-.49-.27,1.29,1.29,0,0,0-.55.08.41.41,0,0,0-.28.34.14.14,0,0,0,0,.09,1,1,0,0,0,.22.35.62.62,0,0,0,.27.17c.27.1.54.2.81.32a.88.88,0,0,0,.53.05,1.55,1.55,0,0,0,1.1-.74,2.67,2.67,0,0,0,.35-1c0-.06,0-.11,0-.16l0,0,0,.08a5.5,5.5,0,0,1,.37,1.54,2.07,2.07,0,0,1-.05.61,1,1,0,0,1-.5.67,1.36,1.36,0,0,0-.44.35.63.63,0,0,0-.12.32.24.24,0,0,0,.09.21l.16.14a.12.12,0,0,1-.15,0,.59.59,0,0,1-.18-.17,1.27,1.27,0,0,1-.15-.31.23.23,0,0,1,0-.2.68.68,0,0,1,.21-.27.9.9,0,0,0,.27-.28.72.72,0,0,0,.12-.21l-.09.05a5.08,5.08,0,0,1-1.08.57,1.91,1.91,0,0,1-.85.14l-.83-.06a3.1,3.1,0,0,1-.51-.11A.38.38,0,0,1,9,9.11H9l.92.05a3.35,3.35,0,0,0,.53-.07A.62.62,0,0,0,10.68,9l.08-.07v0h-.11a4.91,4.91,0,0,1-1.26-.23,1.91,1.91,0,0,1-.77-.47,1.45,1.45,0,0,1-.4-.7.88.88,0,0,1,.18-.78,1.44,1.44,0,0,1,.9-.54,2.87,2.87,0,0,1,1.27.05l.09,0a1.08,1.08,0,0,1,.51.81A.81.81,0,0,1,11.07,7.49Z"/><path d="M21.32,8.91c0,.08.05.09.1.11a1.24,1.24,0,0,0,.43.11A5.72,5.72,0,0,0,23,9.1h.07L23,9.16a1.53,1.53,0,0,1-.46.14c-.31,0-.62.06-.93.08a3.47,3.47,0,0,1-1-.13L20,9.1h-.08a2.09,2.09,0,0,1,.14.17.33.33,0,0,1,.06.4A1,1,0,0,1,20,10a.25.25,0,0,1-.27.09L19.8,10a.3.3,0,0,0,.11-.39.67.67,0,0,0-.16-.25,1.88,1.88,0,0,0-.36-.27,1.09,1.09,0,0,1-.54-.84A3.81,3.81,0,0,1,19,6.79c.05-.18.12-.35.18-.53a.3.3,0,0,1,.06-.11.31.31,0,0,1,0,.08,3.11,3.11,0,0,0,.33,1,1.55,1.55,0,0,0,1.12.8,2.09,2.09,0,0,0,.56,0,3.28,3.28,0,0,0,.82-.2,3.17,3.17,0,0,0,.41-.21.28.28,0,0,0,.11-.13l-.33.09c.07-.1.15-.18.2-.27a.38.38,0,0,0-.2-.59A1.21,1.21,0,0,0,22,6.67a.91.91,0,0,0-.23,0,.55.55,0,0,0-.46.23,1.4,1.4,0,0,0-.22.48l0,.12A.75.75,0,0,1,20.91,7a1.12,1.12,0,0,1,.51-.77.26.26,0,0,1,.12,0,2.7,2.7,0,0,1,1.49,0,1.34,1.34,0,0,1,.65.47.91.91,0,0,1,.14.91,1.54,1.54,0,0,1-.67.82,2.7,2.7,0,0,1-1,.36c-.26,0-.52.06-.79.09Z"/><path d="M12.28,22.63A6,6,0,0,0,10.35,22c-.25-.05-.49-.09-.73-.16a2.21,2.21,0,0,1-.42-.18A.42.42,0,0,1,9,21.46a4,4,0,0,0-.23-.39l-.15-.21a.74.74,0,0,0-.13-.12.73.73,0,0,1-.26-.36l.35.15a.14.14,0,0,0-.08-.12l-.4-.31a4.52,4.52,0,0,1-1-1L7,18.94a.19.19,0,0,1,.15,0l1.46.62.44.19a.48.48,0,0,1,.33.43.37.37,0,0,0,.09.2,1.58,1.58,0,0,0,.37.36,5.87,5.87,0,0,0,1.24.65,1.65,1.65,0,0,1,.62.38,3.27,3.27,0,0,1,.54.74S12.26,22.58,12.28,22.63Z"/><path d="M25.05,19l-.06.1a4.51,4.51,0,0,1-1,1.05l-.38.3a.43.43,0,0,0-.1.09l0,0,.32-.13a.19.19,0,0,1,0,.07.67.67,0,0,1-.25.3.14.14,0,0,0-.07.06c-.13.18-.25.37-.37.55l0,.05a.54.54,0,0,1-.35.34,3.07,3.07,0,0,1-.8.23,8.53,8.53,0,0,0-1.57.37l-.55.24a.11.11,0,0,1,0-.05,3.32,3.32,0,0,1,.63-.82,1.44,1.44,0,0,1,.52-.31,5.33,5.33,0,0,0,1.23-.64,2,2,0,0,0,.4-.36.85.85,0,0,0,.09-.22.47.47,0,0,1,.32-.42L24.9,19l.14,0Z"/><path class="cls-1" d="M11.19,17l.1.08,2.15,1.66.15.1a.53.53,0,0,0,.5.09A4,4,0,0,1,15,22.09a.89.89,0,0,0,0-.1c-.06-.15-.12-.29-.17-.44a.71.71,0,0,0-.35-.41c-.55-.31-1.08-.65-1.6-1a2.07,2.07,0,0,1-.49-.49,2,2,0,0,1-.27-.62l-.27-1.09a.89.89,0,0,0-.2-.4L11.17,17Z"/><path class="cls-1" d="M17.05,22.07A4.08,4.08,0,0,1,18,18.91l.15,0a.5.5,0,0,0,.35-.12c.47-.34,1-.68,1.41-1s.63-.51,1-.76a.19.19,0,0,1,.09-.05l0,.07-.38.45a1.2,1.2,0,0,0-.27.54c-.11.42-.22.84-.34,1.26a1.15,1.15,0,0,1-.31.53,3.87,3.87,0,0,1-.37.32,13.46,13.46,0,0,1-1.57,1,.72.72,0,0,0-.38.44,3.61,3.61,0,0,1-.16.42l0,.09Z"/><path class="cls-1" d="M16,11.66a2.44,2.44,0,0,1,.5.9,2.22,2.22,0,0,1,.07.68,1.91,1.91,0,0,0,.28,1.09l.15.28a.48.48,0,0,1-.06.56c-.12.16-.24.31-.37.46a2.35,2.35,0,0,0-.53.95s0,0,0,.06a.31.31,0,0,1,0-.09,2.13,2.13,0,0,0-.49-.88l-.36-.42-.07-.09a.47.47,0,0,1,0-.55,2.15,2.15,0,0,1,.14-.26,2.1,2.1,0,0,0,.29-1.22A2.17,2.17,0,0,1,16,11.66Z"/><path class="cls-1" d="M16.9,17.66a.63.63,0,0,1,0,.24,1.08,1.08,0,0,1-.71.83.39.39,0,0,1-.28,0,1.11,1.11,0,0,1-.72-.93.41.41,0,0,1,0-.11v0a.94.94,0,0,0,.5,0,1.09,1.09,0,0,0,.37-.37l.1.11.23.22a.39.39,0,0,0,.46.06Z"/></svg>